<svg width="56" height="52" fill="none" xmlns="http://www.w3.org/2000/svg"><path d="M49.963 44.416c3.663-4.083 5.666-9.302 5.666-14.83 0-9.819-6.515-18.523-15.889-21.31C35.66 3.298 29.466.116 22.543.116 10.283.116.308 10.091.308 22.351c0 5.528 2.003 10.748 5.666 14.83L.668 42.488a1.23 1.23 0 00.869 2.098h15.456a22.23 22.23 0 0016.401 7.235H54.4a1.23 1.23 0 00.87-2.098l-5.307-5.307zM8.559 38.073a1.23 1.23 0 000-1.738A19.647 19.647 0 012.766 22.35c0-10.904 8.872-19.776 19.777-19.776 10.904 0 19.776 8.872 19.776 19.776 0 10.905-8.872 19.777-19.776 19.777H4.505l4.054-4.055zm24.835 11.29a19.768 19.768 0 01-12.877-4.777h2.025c12.26 0 22.235-9.975 22.235-22.235 0-3.793-.957-7.366-2.639-10.494 6.637 3.283 11.033 10.126 11.033 17.73a19.65 19.65 0 01-5.792 13.983 1.23 1.23 0 000 1.739l4.053 4.053H33.394z" fill="#EEE"/><path d="M32.287 13.976H12.795a1.23 1.23 0 010-2.459h19.492a1.23 1.23 0 010 2.46zm0 6.007H12.795a1.23 1.23 0 010-2.458h19.492a1.23 1.23 0 010 2.458zm0 6.008H12.795a1.23 1.23 0 010-2.459h19.492a1.23 1.23 0 010 2.459zm-9.572 6.007h-9.92a1.23 1.23 0 010-2.459h9.92a1.23 1.23 0 010 2.46z" fill="#EEE"/></svg>