<svg width="60" height="54" fill="none" xmlns="http://www.w3.org/2000/svg"><path d="M59.988 5.582a2.885 2.885 0 01-2.882 2.881H17.46a2.885 2.885 0 01-2.88-2.88 2.885 2.885 0 012.88-2.882h39.66a2.882 2.882 0 012.869 2.881zm-2.87 11.402H17.46a2.885 2.885 0 00-2.88 2.88 2.885 2.885 0 002.88 2.882h39.66A2.885 2.885 0 0060 19.865c-.012-1.588-1.293-2.881-2.881-2.881zm0 14.282H17.46a2.885 2.885 0 00-2.88 2.882 2.885 2.885 0 002.88 2.88h39.66A2.885 2.885 0 0060 34.149c-.012-1.589-1.293-2.882-2.881-2.882zm0 14.283H17.46a2.885 2.885 0 00-2.88 2.881 2.885 2.885 0 002.88 2.882h39.66A2.885 2.885 0 0060 48.43c-.012-1.588-1.293-2.88-2.881-2.88zM4.79.792A4.787 4.787 0 000 5.582a4.798 4.798 0 004.79 4.802c2.647 0 4.79-2.155 4.79-4.802A4.787 4.787 0 004.79.792zm0 14.283A4.787 4.787 0 000 19.865a4.787 4.787 0 004.79 4.79 4.787 4.787 0 004.79-4.79 4.787 4.787 0 00-4.79-4.79zm0 14.283A4.787 4.787 0 000 34.148a4.787 4.787 0 004.79 4.79 4.787 4.787 0 004.79-4.79 4.787 4.787 0 00-4.79-4.79zm0 14.27A4.787 4.787 0 000 48.419a4.787 4.787 0 004.79 4.79 4.787 4.787 0 004.79-4.79 4.795 4.795 0 00-4.79-4.79z" fill="#fff"/></svg>